<svg id="Camada_1" data-name="Camada 1" xmlns="http://www.w3.org/2000/svg" viewBox="0 0 122.85 122.87"><defs><style>.cls-1{fill:#2351ff;}</style></defs><path class="cls-1" d="M318.4,422.26a24.09,24.09,0,1,1-24.08-24.09A24.08,24.08,0,0,1,318.4,422.26Z" transform="translate(-232.62 -360.55)"/><path class="cls-1" d="M294.32,380.81A41.47,41.47,0,0,1,335,414h20.52a61.7,61.7,0,1,0-70.09,69.31V462.73a41.45,41.45,0,0,1,8.94-81.92Zm8.19,82.08v20.53a61.72,61.72,0,0,0,52.87-52.29H334.82A41.49,41.49,0,0,1,302.51,462.89Z" transform="translate(-232.62 -360.55)"/></svg>