<svg width="24" height="24" viewBox="0 0 24 24" fill="none" xmlns="http://www.w3.org/2000/svg">
<path d="M10.5852 16.416C10.013 15.8438 9.84178 14.9832 10.1515 14.2355C10.4612 13.4878 11.1907 13.0004 12 13.0004C12.8093 13.0004 13.5389 13.4878 13.8485 14.2355C14.1582 14.9832 13.987 15.8438 13.4148 16.416C13.0396 16.7913 12.5307 17.0021 12 17.0021C11.4694 17.0021 10.9604 16.7913 10.5852 16.416" stroke="#2351FF" stroke-width="1.5" stroke-linecap="round" stroke-linejoin="round"/>
<path d="M17.5023 17.0021V13.0004" stroke="#2351FF" stroke-width="1.5" stroke-linecap="round" stroke-linejoin="round"/>
<path d="M6.49771 17.0021V13.0004" stroke="#2351FF" stroke-width="1.5" stroke-linecap="round" stroke-linejoin="round"/>
<path d="M12 2.99625V7.99834" stroke="#2351FF" stroke-width="1.5" stroke-linecap="round" stroke-linejoin="round"/>
<path d="M9.99917 5.99751L12 7.99834L14.0008 5.99751" stroke="#2351FF" stroke-width="1.5" stroke-linecap="round" stroke-linejoin="round"/>
<path d="M16.0017 8.99875H19.0029C19.5336 8.9986 20.0426 9.20936 20.4179 9.58462C20.7931 9.95988 21.0038 10.4689 21.0038 10.9996V19.0029C21.0038 19.5336 20.7931 20.0426 20.4179 20.4179C20.0426 20.7931 19.5336 21.0039 19.0029 21.0037H4.99709C4.46639 21.0039 3.95738 20.7931 3.58212 20.4179C3.20686 20.0426 2.99625 19.5336 2.99625 19.0029V10.9996C2.99625 10.4689 3.20686 9.95988 3.58212 9.58462C3.95738 9.20936 4.46639 8.9986 4.99709 8.99875H7.99834" stroke="#2351FF" stroke-width="1.5" stroke-linecap="round" stroke-linejoin="round"/>
</svg>
