<?xml version="1.0" encoding="utf-8"?>
<svg fill="none" xmlns="http://www.w3.org/2000/svg">
  <path d="M 11.001 11 C 10.999 12.105 13.239 13 15.999 13 M 21 11 C 21 9.895 18.762 9 16 9 C 13.238 9 11 9.895 11 11 M 21 7 C 21 5.895 18.762 5 16 5 C 13.238 5 11 5.895 11 7 M 12.999 15 L 12.999 18 L 12.998 18 M 3 10 C 3 8.895 5.238 8 7.999 8 M 8 12 C 5.238 12 3 12.895 3 14" stroke="#2351FF" stroke-width="1.5" stroke-linecap="round" stroke-linejoin="round" style="transform-origin: 12px 11.5px;" transform="matrix(-1, 0, 0, -1, 0, 0)"/>
  <path d="M 13 20 C 13.002 21.105 10.762 22 8.002 22 M 8.003 10 C 5.241 10 3.003 10.895 3.003 12 L 3.003 20" stroke="#2351FF" stroke-width="1.5" stroke-linecap="round" stroke-linejoin="round" style="transform-origin: 8.0015px 16px;" transform="matrix(-1, 0, 0, -1, 0, 0)"/>
  <path d="M 3.001 17 C 3.001 15.895 5.24 15 8.001 15 M 16.001 12 C 18.763 12 21.001 12.895 21.001 14 L 21.001 22" stroke="#2351FF" stroke-width="1.5" stroke-linecap="round" stroke-linejoin="round" style="transform-origin: 12.001px 17px;" transform="matrix(-1, 0, 0, -1, 0.000001907349, 0)"/>
  <path clip-rule="evenodd" d="M 16.001 3 C 13.24 3 11.001 3.895 11.001 5 C 11.001 6.105 13.24 7 16.001 7 C 18.762 7 21.001 6.105 21.001 5 C 21.001 3.895 18.762 3 16.001 3 Z" stroke="#2351FF" stroke-width="1.5" stroke-linecap="round" stroke-linejoin="round" style="transform-origin: 16.001px 5px;" transform="matrix(-1, 0, 0, -1, 0, 0)"/>
  <path d="M 21.009 17 L 21.009 5" stroke="#2351FF" stroke-width="1.5" stroke-linecap="round" stroke-linejoin="round" style="" transform="matrix(1, 0, 0, 1, -4.440892098500626e-16, 0)"/>
  <path d="M 3.078 3.357 L 5.078 5.357 L 3.078 7.357" stroke="#2351FF" stroke-width="1.5" stroke-linecap="round" stroke-linejoin="round" style="transform-origin: 4.078px 5.357px;" transform="matrix(-1, 0, 0, -1, 0, 9.53674e-7)"/>
  <path d="M 3.078 5.357 L 8.078 5.357" stroke="#2351FF" stroke-width="1.5" stroke-linecap="round" stroke-linejoin="round" style="" transform="matrix(1, 0, 0, 1, -4.440892098500626e-16, 0)"/>
</svg>