<svg width="24" height="24" viewBox="0 0 24 24" fill="none" xmlns="http://www.w3.org/2000/svg">
<path d="M21.0037 9.49896V6.49771C21.0037 5.11642 19.884 3.99667 18.5027 3.99667H5.49729C4.116 3.99667 2.99625 5.11642 2.99625 6.49771V7.99833" stroke="#2351FF" stroke-width="1.5" stroke-linecap="round" stroke-linejoin="round"/>
<path d="M21.0037 14.501V17" stroke="#2351FF" stroke-width="1.5" stroke-linecap="round" stroke-linejoin="round"/>
<path d="M1.99582 12.6003V19.4031C1.99696 20.2869 3.78743 21.0037 5.99749 21.0037C8.20755 21.0037 9.99801 20.2869 9.99915 19.4031V12.6003" stroke="#2351FF" stroke-width="1.5" stroke-linecap="round" stroke-linejoin="round"/>
<path d="M9.99801 12.6003C9.99801 13.4841 8.20641 14.2009 5.99635 14.2009C3.78629 14.2009 1.99582 13.4841 1.99582 12.6003C1.99582 11.7153 3.78857 10.9996 5.99749 10.9996C8.20641 10.9996 9.99801 11.7165 9.99915 12.6003" stroke="#2351FF" stroke-width="1.5" stroke-linecap="round" stroke-linejoin="round"/>
<path d="M1.9964 16.0017C1.9964 16.8855 3.78686 17.6023 5.99693 17.6023C8.20699 17.6023 9.99859 16.8855 9.99859 16.0017" stroke="#2351FF" stroke-width="1.5" stroke-linecap="round" stroke-linejoin="round"/>
<path fill-rule="evenodd" clip-rule="evenodd" d="M18.5027 9.49896H21.0037C21.5562 9.49896 22.0041 9.94686 22.0041 10.4994V13.5006C22.0041 14.0531 21.5562 14.501 21.0037 14.501H18.5027C17.1214 14.501 16.0016 13.3813 16.0016 12V12C16.0016 10.6187 17.1214 9.49896 18.5027 9.49896V9.49896Z" stroke="#2351FF" stroke-width="1.5" stroke-linecap="round" stroke-linejoin="round"/>
<path d="M20 19L22 21L20 23" stroke="#2351FF" stroke-width="1.5" stroke-linecap="round" stroke-linejoin="round"/>
<path d="M17 21L22 21" stroke="#2351FF" stroke-width="1.5" stroke-linecap="round" stroke-linejoin="round"/>
</svg>
