<svg viewBox="0 0 31 31" xmlns="http://www.w3.org/2000/svg" fill-rule="evenodd" clip-rule="evenodd" stroke-linejoin="round" stroke-miterlimit="1.414"><g fill="#00ae4d" fill-rule="nonzero" stroke="#00ae4d" stroke-width=".2"><path d="M15.1 13.1c1.93 0 3.5-1.57 3.5-3.5 0-1.929-1.57-3.5-3.5-3.5s-3.5 1.571-3.5 3.5c0 1.93 1.57 3.5 3.5 3.5zm0-6c1.379 0 2.5 1.122 2.5 2.5 0 1.379-1.121 2.5-2.5 2.5a2.503 2.503 0 0 1-2.5-2.5c0-1.378 1.122-2.5 2.5-2.5z"/><path d="M15.012 27.479l7.67-11.079c2.877-3.835 2.461-10.14-.89-13.491A9.526 9.526 0 0 0 15.012.1a9.526 9.526 0 0 0-6.78 2.809C4.88 6.26 4.464 12.564 7.33 16.385l7.682 11.094zM8.939 3.616A8.533 8.533 0 0 1 15.012 1.1c2.294 0 4.45.894 6.073 2.516 3.025 3.024 3.397 8.718.786 12.199l-6.859 9.907L8.141 15.8c-2.6-3.466-2.227-9.16.798-12.184z"/><path d="M21.159 21.604a.5.5 0 0 0-.117.993c5.258.619 8.058 2.287 8.058 3.253 0 1.357-5.326 3.25-14 3.25s-14-1.893-14-3.25c0-.966 2.801-2.634 8.059-3.253a.5.5 0 0 0-.117-.993C3.777 22.224.1 23.97.1 25.85c0 2.112 5.153 4.25 15 4.25 9.848 0 15-2.138 15-4.25 0-1.88-3.677-3.626-8.941-4.246z"/></g></svg>