<svg viewBox="0 0 40 40" xmlns="http://www.w3.org/2000/svg" fill-rule="evenodd" clip-rule="evenodd" stroke-linejoin="round" stroke-miterlimit="1.414"><path d="M20.001-.001c11.049 0 20 8.952 20 20s-8.951 20-20 20c-11.048 0-20-8.952-20-20s8.952-20 20-20zm9.186 18.629L18.259 7.7a1.927 1.927 0 0 0-2.734 0l-1.37 1.37a1.928 1.928 0 0 0 0 2.734L22.348 20l-8.193 8.193a1.928 1.928 0 0 0 0 2.734l1.37 1.371a1.927 1.927 0 0 0 2.734 0L29.187 21.37a1.937 1.937 0 0 0 0-2.742z" fill="#403f41" fill-rule="nonzero"/></svg>