<svg viewBox="0 0 42 42" xmlns="http://www.w3.org/2000/svg" fill-rule="evenodd" clip-rule="evenodd" stroke-linejoin="round" stroke-miterlimit="1.414"><g fill="none" stroke="#00ae4d"><path d="M31.061 26.961c-1.307-1.29-2.938-1.29-4.237 0-.99.983-1.981 1.965-2.955 2.964-.266.274-.491.333-.816.15-.641-.35-1.323-.633-1.939-1.016-2.872-1.806-5.277-4.129-7.408-6.742-1.057-1.299-1.998-2.689-2.656-4.254-.133-.316-.108-.524.15-.782.991-.957 1.956-1.94 2.93-2.922 1.357-1.365 1.357-2.963-.008-4.337-.774-.782-1.548-1.548-2.322-2.33-.799-.799-1.59-1.607-2.398-2.397-1.306-1.274-2.938-1.274-4.236.008-.999.982-1.957 1.989-2.972 2.955-.941.89-1.415 1.981-1.515 3.254-.158 2.073.35 4.029 1.065 5.935 1.465 3.946 3.696 7.45 6.401 10.663 3.655 4.345 8.016 7.783 13.119 10.263 2.297 1.116 4.678 1.973 7.267 2.115 1.781.1 3.329-.35 4.569-1.74.849-.949 1.807-1.815 2.706-2.722 1.331-1.348 1.34-2.98.016-4.312-1.581-1.59-3.171-3.171-4.761-4.753z" stroke-width="1.3"/><path d="M29.471 20.327l3.072-.524a13.727 13.727 0 0 0-3.838-7.408 13.652 13.652 0 0 0-7.824-3.904l-.433 3.088a10.594 10.594 0 0 1 6.06 3.022 10.585 10.585 0 0 1 2.963 5.726zm4.803-13.351C30.728 3.43 26.241 1.191 21.289.5l-.433 3.088c4.278.599 8.157 2.539 11.22 5.594a19.625 19.625 0 0 1 5.503 10.613l3.071-.525a22.808 22.808 0 0 0-6.376-12.294z"/></g></svg>