<svg viewBox="0 0 39 28" xmlns="http://www.w3.org/2000/svg" fill-rule="evenodd" clip-rule="evenodd" stroke-linejoin="round" stroke-miterlimit="1.414"><g fill="#00ae4d" fill-rule="nonzero"><path d="M35.756 27.648H3.135A3.139 3.139 0 0 1 0 24.513V3.135A3.139 3.139 0 0 1 3.135 0h32.621a3.139 3.139 0 0 1 3.135 3.135v21.378a3.139 3.139 0 0 1-3.135 3.135zM3.135 1.254a1.883 1.883 0 0 0-1.881 1.881v21.378c0 1.037.844 1.881 1.881 1.881h32.621a1.883 1.883 0 0 0 1.881-1.881V3.135a1.883 1.883 0 0 0-1.881-1.881H3.135z"/><path d="M19.445 16.975c-.834 0-1.668-.277-2.302-.83L1.117 2.178a.627.627 0 1 1 .826-.945l16.024 13.966c.802.699 2.157.697 2.957 0l16.02-13.965a.628.628 0 0 1 .826.946L21.748 16.143c-.635.555-1.469.832-2.303.832z"/></g></svg>