<svg viewBox="0 0 56 56" xmlns="http://www.w3.org/2000/svg" fill-rule="evenodd" clip-rule="evenodd" stroke-linejoin="round" stroke-miterlimit="1.414"><path d="M56 28C56 12.546 43.454 0 28 0S0 12.546 0 28s12.546 28 28 28 28-12.546 28-28z" fill="#f0f0f0"/><path d="M27.871 9l-.259.866v25.121l.259.254 11.872-6.893L27.871 9z" fill="#343434"/><path d="M27.871 9L16 28.348l11.871 6.893V9z" fill="#8c8c8c"/><path d="M27.871 37.449l-.146.175v8.948l.146.419L39.75 30.559l-11.879 6.89z" fill="#3c3c3b"/><path d="M27.871 46.991v-9.542L16 30.559l11.871 16.432z" fill="#8c8c8c"/><path d="M27.871 35.241l11.872-6.893-11.872-5.3v12.193z" fill="#141414"/><path d="M16 28.348l11.871 6.893V23.048L16 28.348z" fill="#393939"/></svg>