<svg viewBox="0 0 56 56" xmlns="http://www.w3.org/2000/svg" fill-rule="evenodd" clip-rule="evenodd" stroke-linejoin="round" stroke-miterlimit="1.414"><path d="M56 28C56 12.546 43.454 0 28 0S0 12.546 0 28s12.546 28 28 28 28-12.546 28-28z" fill="url(#_Linear1)"/><path d="M30.734 11.009c-2.414 1.343-3.901 3.825-3.901 6.511 0 1.457.538 2.798 1.224 4.041.577 1.046.869 2.987-1.11 4.088-1.472.819-3.308.3-4.226-1.115-.774-1.196-1.71-2.316-3.02-3.045-3.73-2.076-8.501-.844-10.655 2.752A7.29 7.29 0 0 0 8 27.996c.004 2.603 1.402 5.125 3.901 6.516a8.054 8.054 0 0 0 7.8 0c1.31-.729 2.245-1.848 3.02-3.043.636-.981 2.224-2.231 4.226-1.116 1.469.818 1.924 2.611 1.109 4.088-.685 1.244-1.222 2.584-1.222 4.04 0 4.153 3.492 7.519 7.8 7.519 4.307 0 7.799-3.366 7.799-7.519 0-2.686-1.486-5.168-3.899-6.511-1.321-.735-2.808-.948-4.281-.997-1.235-.042-3.079-.805-3.079-2.972 0-1.615 1.358-2.914 3.08-2.972 1.473-.05 2.959-.263 4.28-.998 2.499-1.39 3.897-3.913 3.901-6.508a7.282 7.282 0 0 0-1.046-3.762c-1.44-2.404-4.05-3.752-6.736-3.761a8.04 8.04 0 0 0-3.919 1.009z" fill="#fff"/><defs><linearGradient id="_Linear1" x2="1" gradientUnits="userSpaceOnUse" gradientTransform="rotate(57.074 4.866 20.23) scale(54.6778)"><stop offset="0" stop-color="#00aae4"/><stop offset="1" stop-color="#006097"/></linearGradient></defs></svg>