<svg viewBox="0 0 33 38" xmlns="http://www.w3.org/2000/svg" fill-rule="evenodd" clip-rule="evenodd" stroke-linejoin="round" stroke-miterlimit="1.414"><path d="M16.051.127v37.817C6.085 31.661.236 21.323 0 5.458c7.18-.77 12.034-2.82 16.051-5.331z" fill="#00ae4d"/><path d="M16.051 0v37.934c9.213-5.722 15.302-15.58 16.064-32.491C26.194 5.048 20.876 3.144 16.051 0" fill="#005827"/><path d="M16.036 4.998c3.384 1.862 7.076 3.597 12.01 3.961-.681 12.494-5.051 20.041-12.01 24.113C8.301 28.367 4.051 20.497 4.056 8.977c3.914-.407 7.99-1.673 11.98-3.979z" fill="#403f41"/><path d="M13.976 15.661h3.178v-1.192c0-.438-.156-.812-.466-1.123a1.531 1.531 0 0 0-1.123-.465 1.53 1.53 0 0 0-1.123.465 1.53 1.53 0 0 0-.466 1.123v1.192zm5.163.596v3.574a.573.573 0 0 1-.173.422.575.575 0 0 1-.422.174h-5.958a.575.575 0 0 1-.422-.174.574.574 0 0 1-.174-.422v-3.574c0-.166.058-.306.174-.422a.575.575 0 0 1 .422-.174h.199v-1.192c0-.761.273-1.414.819-1.961a2.676 2.676 0 0 1 1.961-.819c.761 0 1.415.273 1.961.819.546.547.819 1.2.819 1.961v1.192h.199c.165 0 .306.058.422.174a.573.573 0 0 1 .173.422zm-4.895 8.992c0 .353-.128.63-.383.831-.255.201-.607.301-1.056.301-.449 0-.816-.069-1.102-.209v-.613c.181.085.373.152.577.201.203.049.393.073.568.073.257 0 .447-.049.569-.147a.477.477 0 0 0 .183-.393.495.495 0 0 0-.168-.378c-.112-.103-.344-.225-.695-.366-.362-.147-.617-.314-.766-.502a1.067 1.067 0 0 1-.222-.679c0-.331.117-.592.353-.782.235-.19.551-.285.947-.285.38 0 .759.083 1.135.25l-.206.529c-.353-.148-.668-.223-.945-.223-.21 0-.369.046-.478.138a.451.451 0 0 0-.163.362c0 .103.022.191.065.265a.67.67 0 0 0 .215.207c.099.066.279.152.538.258.291.122.504.235.64.34a.993.993 0 0 1 .299.355c.063.132.095.288.095.467zm3.057 0c0 .353-.128.63-.383.831-.255.201-.607.301-1.056.301-.449 0-.816-.069-1.102-.209v-.613c.181.085.373.152.577.201.203.049.393.073.568.073.258 0 .447-.049.569-.147a.478.478 0 0 0 .184-.393.496.496 0 0 0-.169-.378c-.112-.103-.344-.225-.695-.366-.362-.147-.617-.314-.765-.502a1.062 1.062 0 0 1-.223-.679c0-.331.118-.592.353-.782.235-.19.551-.285.947-.285.38 0 .759.083 1.135.25l-.206.529c-.353-.148-.668-.223-.945-.223-.21 0-.369.046-.478.138a.451.451 0 0 0-.163.362c0 .103.022.191.066.265a.655.655 0 0 0 .214.207c.1.066.279.152.538.258.291.122.505.235.64.34a.993.993 0 0 1 .299.355c.063.132.095.288.095.467zm.768 1.078v-3.969h.649v3.413h1.681v.556h-2.33z" fill="#fff" fill-rule="nonzero"/></svg>