<?xml version="1.0" standalone="no"?>
<!DOCTYPE svg PUBLIC "-//W3C//DTD SVG 20010904//EN"
 "http://www.w3.org/TR/2001/REC-SVG-20010904/DTD/svg10.dtd">
<svg version="1.0" xmlns="http://www.w3.org/2000/svg"
 width="965.000000pt" height="965.000000pt" viewBox="0 0 965.000000 965.000000"
 preserveAspectRatio="xMidYMid meet">
<metadata>
Created by potrace 1.11, written by Peter Selinger 2001-2013
</metadata>
<g transform="translate(0.000000,965.000000) scale(0.100000,-0.100000)"
fill="#000000" stroke="none">
<path d="M3017 7914 c-1 -1 -58 -5 -127 -8 -69 -4 -141 -9 -160 -12 -471 -69
-841 -198 -1205 -419 -106 -65 -280 -182 -307 -207 -7 -7 -36 -31 -63 -53 -68
-54 -112 -94 -225 -205 -86 -83 -120 -120 -214 -230 -42 -49 -172 -230 -227
-317 -63 -98 -170 -293 -162 -293 3 0 1 -6 -5 -12 -37 -46 -158 -364 -203
-537 -36 -139 -86 -399 -81 -423 1 -3 -6 -46 -15 -95 -20 -106 -24 -443 -6
-513 7 -25 21 -119 33 -210 31 -245 112 -551 193 -731 14 -30 37 -82 52 -116
15 -34 33 -64 41 -67 8 -3 14 -19 14 -36 0 -19 7 -34 20 -42 11 -7 20 -20 20
-30 0 -50 323 -527 358 -528 6 0 12 -7 12 -16 0 -22 322 -344 344 -344 9 0 16
-6 16 -12 0 -7 24 -31 53 -53 30 -22 87 -65 128 -96 41 -31 92 -67 115 -80 22
-13 58 -36 80 -50 21 -14 64 -39 94 -56 30 -17 80 -44 110 -60 271 -149 717
-286 1032 -319 34 -3 95 -10 133 -14 189 -22 537 -6 780 36 593 100 1187 401
1608 814 53 53 97 94 97 91 0 -8 89 93 90 102 0 5 5 5 10 2 6 -3 10 -1 10 5 0
6 10 21 23 34 12 12 51 55 87 95 81 91 186 207 223 244 15 16 27 31 27 34 0 3
27 32 59 65 33 33 59 61 58 62 -1 2 34 42 78 91 113 123 122 134 195 215 36
41 70 78 75 84 6 6 48 54 95 106 47 52 90 100 95 106 121 132 177 195 200 222
15 17 33 32 40 32 7 0 31 -21 53 -47 237 -280 291 -344 326 -384 108 -120 161
-184 159 -190 -2 -4 5 -10 15 -14 9 -3 29 -22 44 -42 15 -20 52 -62 83 -95 30
-32 55 -60 55 -62 0 -3 53 -59 205 -217 231 -240 294 -282 425 -283 101 -1
135 5 200 38 100 50 174 143 204 257 16 61 14 185 -3 202 -6 6 -11 17 -11 25
0 18 -45 83 -110 157 -29 33 -76 87 -105 120 -29 33 -135 155 -235 270 -231
265 -290 332 -398 450 -21 22 -64 72 -97 110 -33 39 -64 75 -70 81 -5 6 -30
35 -55 64 -25 29 -50 58 -55 64 -40 41 -95 121 -95 138 0 10 37 61 82 111 45
51 96 107 113 126 16 19 35 39 40 45 16 17 177 197 210 235 17 18 41 45 55 60
52 56 225 250 295 330 17 18 35 39 40 45 13 13 177 196 220 245 17 19 35 39
41 45 5 6 70 79 144 161 73 83 136 152 139 155 3 3 40 43 81 90 41 47 80 90
85 96 6 6 44 48 85 94 101 112 100 111 113 103 12 -6 107 -82 117 -93 3 -3 32
-28 65 -57 49 -41 61 -48 62 -33 1 10 15 63 32 117 16 54 48 166 71 248 23 83
45 161 50 175 5 14 30 99 55 190 25 91 50 176 55 190 5 14 31 106 59 206 28
99 53 188 57 197 4 10 1 17 -6 17 -11 0 -331 -111 -375 -130 -11 -5 -65 -25
-120 -44 -55 -19 -158 -56 -230 -81 -71 -26 -148 -53 -170 -60 -22 -8 -65 -23
-95 -35 -30 -12 -66 -25 -80 -29 -76 -24 -296 -105 -303 -111 -4 -4 14 -26 40
-50 107 -94 171 -161 169 -174 -2 -12 -127 -154 -306 -345 -8 -9 -62 -68 -120
-131 -57 -63 -109 -120 -115 -126 -5 -6 -50 -55 -100 -109 -100 -110 -100
-109 -205 -225 -41 -45 -88 -97 -105 -115 -51 -54 -209 -227 -225 -245 -27
-31 -184 -203 -244 -267 -32 -35 -66 -72 -75 -82 -86 -99 -176 -191 -187 -191
-7 0 -19 8 -26 19 -7 10 -45 54 -84 97 -113 124 -168 185 -187 208 -10 11 -48
54 -85 95 -37 41 -71 79 -77 85 -5 6 -84 94 -175 196 -90 102 -167 187 -170
190 -3 3 -62 68 -130 145 -69 77 -141 158 -161 180 -49 54 -296 332 -336 378
-18 20 -38 37 -44 37 -7 0 -10 3 -6 6 3 3 -16 29 -44 58 -27 28 -49 54 -49 57
0 9 -149 134 -245 206 -172 128 -424 271 -620 353 -44 18 -89 37 -100 41 -143
62 -486 152 -660 174 -27 3 -57 8 -65 10 -41 10 -473 28 -483 19z m381 -739
c18 -3 59 -7 91 -8 33 -1 57 -5 54 -9 -2 -5 4 -8 14 -9 34 -1 76 -8 92 -15 9
-4 19 -8 24 -9 4 -2 9 -4 12 -5 3 -1 8 -3 13 -5 9 -2 42 -16 117 -49 33 -15
72 -32 88 -39 15 -6 27 -15 27 -19 0 -5 5 -8 10 -8 6 0 40 -18 76 -40 36 -22
70 -40 74 -40 5 0 10 -3 12 -7 5 -11 97 -73 108 -73 6 0 10 -3 10 -7 0 -5 23
-24 50 -43 27 -19 50 -38 50 -42 0 -5 5 -8 11 -8 13 0 132 -97 208 -169 30
-28 56 -51 59 -51 3 0 23 -18 44 -40 22 -22 42 -40 46 -40 7 0 584 -581 667
-673 33 -36 92 -101 132 -144 39 -43 89 -98 112 -123 23 -25 41 -48 41 -52 0
-5 7 -8 15 -8 8 0 15 -4 15 -8 0 -4 15 -24 33 -44 91 -101 159 -178 198 -222
24 -27 53 -59 64 -70 11 -12 45 -50 75 -86 30 -36 57 -67 60 -70 3 -3 28 -32
56 -65 39 -46 50 -65 44 -80 -7 -18 -35 -52 -154 -185 -17 -19 -58 -66 -91
-105 -81 -94 -108 -121 -118 -117 -5 1 -6 -2 -2 -8 3 -5 -1 -13 -9 -16 -9 -3
-16 -11 -16 -17 0 -5 -12 -22 -28 -36 -15 -14 -47 -49 -72 -76 -38 -42 -158
-173 -275 -300 -15 -16 -31 -29 -36 -28 -5 2 -8 -1 -6 -6 5 -20 -533 -565
-752 -761 -47 -41 -92 -82 -100 -90 -9 -8 -39 -33 -66 -55 -28 -22 -55 -44
-61 -50 -43 -37 -94 -76 -98 -73 -3 2 -11 -4 -18 -13 -17 -21 -124 -99 -137
-99 -5 0 -11 -4 -13 -8 -1 -5 -43 -32 -93 -61 -49 -28 -97 -56 -105 -61 -8 -6
-26 -15 -40 -20 -14 -6 -45 -20 -70 -32 -221 -105 -547 -149 -915 -125 -382
26 -750 148 -1090 360 -80 50 -136 87 -145 97 -3 3 -25 21 -50 40 -77 60 -101
82 -210 191 -109 110 -134 138 -223 254 -43 56 -141 206 -187 285 -13 23 -103
213 -111 235 -11 31 -47 127 -60 160 -7 17 -13 37 -14 45 -3 30 -28 125 -36
141 -7 13 -19 77 -34 174 -20 133 -26 230 -25 390 2 229 13 331 52 505 5 25
11 52 13 60 32 160 174 511 254 629 10 14 42 64 72 111 29 47 56 87 59 90 4 3
19 23 35 45 17 22 32 42 36 45 3 3 12 15 21 28 32 47 175 189 298 297 331 289
835 504 1270 541 41 4 77 8 80 11 7 6 430 -5 468 -12z"/>
<path d="M8788 2844 c-2 -1 -23 -5 -48 -9 -90 -13 -216 -95 -255 -164 -53 -95
-78 -180 -70 -241 11 -86 15 -103 24 -114 6 -7 9 -15 7 -17 -3 -2 9 -22 25
-44 16 -22 32 -48 35 -57 4 -10 12 -18 19 -18 8 0 17 -9 20 -20 4 -11 10 -18
15 -15 5 3 12 0 17 -7 14 -23 102 -61 170 -75 77 -15 211 14 267 58 15 11 26
18 26 14 0 -15 103 113 117 145 46 109 52 220 15 303 -11 26 -19 47 -17 47 3
0 -2 8 -10 18 -8 9 -15 20 -16 24 0 10 -80 88 -90 88 -5 0 -9 5 -9 11 0 5 -4
7 -10 4 -5 -3 -10 -2 -10 3 0 14 -74 45 -137 58 -35 7 -82 12 -85 8z"/>
</g>
</svg>
