<svg viewBox="0 0 238 51" xmlns="http://www.w3.org/2000/svg" xmlns:serif="http://www.serif.com/" fill-rule="evenodd" clip-rule="evenodd" stroke-linejoin="round" stroke-miterlimit="1.414"><g serif:id="Logo -&gt; Colorido" fill="#fff" fill-rule="nonzero"><path d="M68.377 22.413v15.116h-4.555V12.362l15.902 15.626V12.872h4.554v25.167L68.377 22.413zm35.807 3.652c-.864-2.906-3.023-4.437-5.614-4.437-2.592 0-4.712 1.61-5.379 4.437h10.993zm3.769 7.341c-2.277 2.866-5.418 4.594-8.834 4.633-6.635 0-10.483-4.986-10.483-10.012 0-5.025 3.848-10.011 10.483-10.011 3.966 0 9.855 3.258 9.855 10.679v.746H93.191c.235 2.905 2.944 4.986 5.811 4.986 2.198 0 4.083-1.06 5.496-2.944l3.455 1.923zm2.709-14.88h4.398l3.376 10.286h.079l3.965-9.108 3.966 9.108h.078l3.377-10.286h4.397l-7.342 19.513-4.436-10.287h-.079l-4.437 10.287-7.342-19.513zm53.208 14.448c-2.748 3.455-6.596 5.065-10.522 5.065-7.381 0-13.231-5.614-13.231-12.838 0-7.225 5.85-12.839 13.231-12.839 3.926 0 7.774 1.61 10.522 5.065l-3.769 2.827c-1.571-2.278-3.966-3.573-6.753-3.573-4.437 0-8.442 3.73-8.442 8.52 0 4.79 4.005 8.519 8.442 8.519 2.787 0 5.261-1.295 6.831-3.415l3.691 2.669zm16.726-4.162l-3.573-8.833-3.612 8.833h7.185zM174 16.955h-5.654v-4.083h10.208l10.444 24.657h-4.908l-1.885-4.633h-10.443l-1.885 4.633h-4.868L174 16.955zm24.892 20.927c-2.906-.392-6.007-1.766-8.52-4.397l3.455-3.102c1.845 1.964 4.436 3.337 7.303 3.337 3.455-.039 5.889-1.334 5.889-3.69 0-5.497-15.901-.197-15.901-10.248 0-3.729 3.337-6.478 7.774-7.224V8.475h4.319v4.004c3.219.315 5.889 1.571 7.931 3.652l-3.377 3.023c-2.238-2.198-4.279-2.944-6.674-2.944-3.77 0-5.183 1.845-5.183 3.337 0 5.536 15.901 0 15.901 10.247 0 4.437-3.926 7.381-8.598 8.049v4.24h-4.319v-4.201zm18.374-10.836h-2.944v-4.319h2.944v-9.855h4.554v9.855h11.269v-9.855h4.555v24.657h-4.555V27.046H221.82v10.483h-4.554V27.046zM38.669 0l-1.094 3.84c10.377 4.81 16.009 16.573 12.778 27.918a23.518 23.518 0 0 1-9.247 12.927l-4.409-7.654-3.484 2.008 5.762 10 .001-.001.622 1.081c6.844-3.307 12.305-9.394 14.551-17.28C57.979 19.393 51.141 5.44 38.669 0M16.236 1.519L15.614.438C8.771 3.745 3.309 9.833 1.063 17.718c-3.831 13.446 3.007 27.401 15.479 32.84l1.094-3.84C7.26 41.909 1.627 30.145 4.859 18.798a23.52 23.52 0 0 1 9.247-12.925l4.24 7.361 3.483-2.007-5.593-9.708z"/><path d="M39.265 31.697a13.431 13.431 0 0 1-11.804 7.016c-7.419 0-13.433-6.015-13.433-13.434s6.014-13.433 13.433-13.433a13.43 13.43 0 0 1 11.804 7.016l2.618-2.618c-3.01-4.795-8.342-7.985-14.422-7.985-9.4 0-17.02 7.621-17.02 17.02 0 9.401 7.62 17.021 17.02 17.021 6.08 0 11.411-3.19 14.421-7.986l-2.617-2.617z"/></g></svg>